<svg width="20" height="20" viewBox="0 0 20 20" fill="none" xmlns="http://www.w3.org/2000/svg">
<path d="M14.265 3.79247L14.6048 3.29799L14.6048 3.29799L14.265 3.79247ZM8.91779 2.54568L9.00389 3.13948L8.91779 2.54568ZM4.14492 5.25981L3.67864 4.88221L3.67863 4.88221L4.14492 5.25981ZM2.48245 10.4927L1.88373 10.5319L2.48245 10.4927ZM15.4402 16.0435C15.6864 15.8218 15.7063 15.4424 15.4846 15.1961C15.2629 14.9499 14.8835 14.93 14.6372 15.1517L15.4402 16.0435ZM13.4957 6.81327C13.4957 6.4819 13.227 6.21327 12.8957 6.21327C12.5643 6.21327 12.2957 6.4819 12.2957 6.81327H13.4957ZM13.0439 12.5469L13.524 12.187L13.524 12.187L13.0439 12.5469ZM14.9236 13.4765L14.9236 14.0765L14.9236 14.0765L14.9236 13.4765ZM12.2956 10C12.2956 11.5886 11.0078 12.8765 9.4192 12.8765V14.0765C11.6706 14.0765 13.4956 12.2514 13.4956 10H12.2956ZM9.4192 12.8765C7.83058 12.8765 6.54275 11.5886 6.54275 10H5.34275C5.34275 12.2514 7.16784 14.0765 9.4192 14.0765V12.8765ZM6.54275 10C6.54275 8.4114 7.83058 7.12357 9.4192 7.12357V5.92357C7.16784 5.92357 5.34275 7.74865 5.34275 10H6.54275ZM9.4192 7.12357C11.0078 7.12357 12.2956 8.4114 12.2956 10H13.4956C13.4956 7.74865 11.6706 5.92357 9.4192 5.92357V7.12357ZM17.9315 8.21043C17.5046 6.24318 16.2895 4.45588 14.6048 3.29799L13.9251 4.28695C15.3645 5.27618 16.3984 6.80395 16.7588 8.46492L17.9315 8.21043ZM14.6048 3.29799C12.9183 2.13892 10.8569 1.65825 8.83169 1.95189L9.00389 3.13948C10.7302 2.88917 12.4875 3.2989 13.9251 4.28695L14.6048 3.29799ZM8.83169 1.95189C6.8065 2.24553 4.96646 3.29189 3.67864 4.88221L4.61121 5.6374C5.709 4.28174 7.27753 3.38978 9.00389 3.13948L8.83169 1.95189ZM3.67863 4.88221C2.39081 6.47254 1.74989 8.48993 1.88373 10.5319L3.08116 10.4534C2.96707 8.71276 3.51342 6.99306 4.61121 5.6374L3.67863 4.88221ZM1.88373 10.5319C2.01757 12.5739 2.91633 14.4904 4.40071 15.899L5.22674 15.0285C3.96139 13.8278 3.19525 12.1941 3.08116 10.4534L1.88373 10.5319ZM4.40071 15.899C5.8851 17.3076 7.84598 18.1049 9.89217 18.1316L9.90788 16.9317C8.16362 16.9089 6.49209 16.2293 5.22674 15.0285L4.40071 15.899ZM9.89217 18.1316C11.9384 18.1584 13.9194 17.4128 15.4402 16.0435L14.6372 15.1517C13.3409 16.319 11.6521 16.9546 9.90788 16.9317L9.89217 18.1316ZM12.2957 6.81327V12.0441H13.4957V6.81327H12.2957ZM12.5638 12.9068C12.879 13.3272 13.6277 14.0765 14.9236 14.0765L14.9236 12.8765C14.1491 12.8765 13.7153 12.4422 13.524 12.187L12.5638 12.9068ZM12.2957 12.0441C12.2957 12.3069 12.354 12.6269 12.5638 12.9068L13.524 12.187C13.5181 12.1791 13.4957 12.1411 13.4957 12.0441H12.2957ZM14.9236 14.0765C15.7148 14.0765 16.3614 13.8196 16.8574 13.3758C17.3422 12.9419 17.6473 12.3624 17.8327 11.7654C18.2002 10.5826 18.1438 9.18836 17.9315 8.21043L16.7588 8.46492C16.9403 9.3011 16.9767 10.4762 16.6868 11.4093C16.5436 11.8703 16.3324 12.2353 16.0572 12.4815C15.7932 12.7177 15.436 12.8765 14.9236 12.8765L14.9236 14.0765Z" fill="#7D7B78"/>
</svg>
