<svg width="20" height="20" viewBox="0 0 20 20" fill="none" xmlns="http://www.w3.org/2000/svg">
<path d="M15.7892 6.90625C15.7892 8.23519 14.7798 9.3125 13.5347 9.3125C12.2896 9.3125 11.2802 8.23519 11.2802 6.90625C11.2802 5.57731 12.2896 4.5 13.5347 4.5C14.7798 4.5 15.7892 5.57731 15.7892 6.90625Z" fill="#7D7B78"/>
<path d="M8.0596 7.9375C8.0596 9.07659 7.19444 10 6.12722 10C5.05999 10 4.19483 9.07659 4.19483 7.9375C4.19483 6.79841 5.05999 5.875 6.12722 5.875C7.19444 5.875 8.0596 6.79841 8.0596 7.9375Z" fill="#7D7B78"/>
<path fill-rule="evenodd" clip-rule="evenodd" d="M9.01655 11.5179C9.03447 11.5324 9.03751 11.5598 9.02355 11.5786C8.26716 12.5979 6.9618 14.1496 8.19465 15.4998L2.36075 15.5C1.61597 15.5 1.01198 14.8143 1.26848 14.068C1.94651 12.0951 3.72189 10.6875 5.8053 10.6875C6.89978 10.6875 8.20652 10.8631 9.01655 11.5179Z" fill="#7D7B78"/>
<path d="M10.6162 15.5H17.626C18.3637 15.5 18.9634 14.8298 18.7467 14.0801C18.3084 12.6006 17.3333 11.3756 16.0654 10.6656C15.5409 10.3719 14.9663 10.1663 14.3589 10.0673C14.1895 10.0397 14.0176 10.0203 13.8435 10.0097C13.7759 10.0056 13.708 10.0027 13.6397 10.0012C13.6033 10.0005 13.5668 10 13.5302 10H13.5254C11.7848 10 10.2339 10.8669 9.23104 12.2183C8.82537 12.765 8.50938 13.3909 8.3068 14.0708C8.08229 14.8243 8.68394 15.5 9.42476 15.5H10.6162Z" fill="#7D7B78"/>
</svg>
